<svg width="17.500626" height="15.625000" viewBox="0 0 17.5006 15.625" fill="none" xmlns="http://www.w3.org/2000/svg" xmlns:xlink="http://www.w3.org/1999/xlink">
	<desc>
			Created with Pixso.
	</desc>
	<defs/>
	<path id="Vector - 0" d="M17.03 5C16.67 4.6 16.16 4.37 15.62 4.37L11.25 4.37L11.25 3.12C11.25 1.39 9.85 0 8.12 0C7.88 -0.01 7.67 0.13 7.56 0.34L4.61 6.25L1.25 6.25C0.55 6.25 0 6.8 0 7.5L0 14.37C0 15.06 0.55 15.62 1.25 15.62L14.68 15.62C15.63 15.62 16.43 14.92 16.54 13.98L17.48 6.48C17.55 5.95 17.38 5.41 17.03 5ZM1.25 7.5L4.37 7.5L4.37 14.37L1.25 14.37L1.25 7.5ZM16.24 6.32L15.3 13.82C15.26 14.14 15 14.37 14.68 14.37L5.62 14.37L5.62 7.02L8.49 1.28C9.36 1.46 10 2.23 10 3.12L10 5C10 5.34 10.27 5.62 10.62 5.62L15.62 5.62C15.8 5.62 15.97 5.7 16.09 5.83C16.21 5.97 16.26 6.15 16.24 6.32Z" fill="#637587" fill-opacity="1.000000" fill-rule="evenodd"/>
</svg>
