<svg width="16.250000" height="14.375000" viewBox="0 0 16.25 14.375" fill="none" xmlns="http://www.w3.org/2000/svg" xmlns:xlink="http://www.w3.org/1999/xlink">
	<desc>
			Created with Pixso.
	</desc>
	<defs/>
	<path id="Vector - 0" d="M14.37 1.87L12.2 1.87L11.14 0.27C11.02 0.1 10.83 0 10.62 0L5.62 0C5.41 0 5.22 0.1 5.1 0.27L4.03 1.87L1.87 1.87C0.83 1.87 0 2.71 0 3.75L0 12.5C0 13.53 0.83 14.37 1.87 14.37L14.37 14.37C15.41 14.37 16.25 13.53 16.25 12.5L16.25 3.75C16.25 2.71 15.41 1.87 14.37 1.87ZM15 12.5C15 12.84 14.72 13.12 14.37 13.12L1.87 13.12C1.52 13.12 1.25 12.84 1.25 12.5L1.25 3.75C1.25 3.4 1.52 3.12 1.87 3.12L4.37 3.12C4.58 3.12 4.77 3.02 4.89 2.84L5.95 1.25L10.28 1.25L11.35 2.84C11.47 3.02 11.66 3.12 11.87 3.12L14.37 3.12C14.72 3.12 15 3.4 15 3.75L15 12.5ZM8.12 4.37C6.22 4.37 4.68 5.91 4.68 7.81C4.68 9.71 6.22 11.25 8.12 11.25C10.02 11.25 11.56 9.71 11.56 7.81C11.56 5.91 10.02 4.37 8.12 4.37ZM8.12 10C6.91 10 5.93 9.02 5.93 7.81C5.93 6.6 6.91 5.62 8.12 5.62C9.33 5.62 10.31 6.6 10.31 7.81C10.31 9.02 9.33 10 8.12 10Z" fill="#637587" fill-opacity="1.000000" fill-rule="evenodd"/>
</svg>
